<svg height="933pt" viewBox="-161 0 933 933.74963" width="933pt" xmlns="http://www.w3.org/2000/svg"><path d="m449.085938 551.601562c156.195312-90.421874 209.734374-290.214843 119.6875-446.632812-4.292969-7.445312-13.824219-9.996094-21.285157-5.703125-7.445312 4.304687-9.996093 13.824219-5.699219 21.277344 53.683594 91.574219 54.191407 204.886719 1.316407 296.945312-52.867188 92.046875-151.011719 148.703125-257.160157 148.464844-106.148437-.222656-204.035156-57.3125-256.507812-149.597656-4.292969-7.453125-13.824219-10.007813-21.269531-5.707031-7.445313 4.296874-10.003907 13.828124-5.710938 21.273437 58.464844 101.105469 166.371094 163.382813 283.15625 163.40625v307.285156h-124.550781c-8.597656 0-15.570312 6.964844-15.570312 15.566407 0 8.597656 6.972656 15.570312 15.570312 15.570312h280.242188c8.601562 0 15.574218-6.972656 15.574218-15.570312 0-8.601563-6.972656-15.566407-15.574218-15.566407h-124.554688v-308.875c46.632812-4.34375 91.785156-18.714843 132.335938-42.136719zm0 0"/><path d="m286.0625 528.855469c44.972656-.019531 89.1875-11.574219 128.414062-33.550781 8.675782-2.488282 16.460938-7.390626 22.460938-14.132813 107.019531-74.804687 143.410156-216.539063 85.664062-333.660156-57.742187-117.105469-192.332031-174.535157-316.835937-135.175781-124.507813 39.351562-201.644531 163.699218-181.578125 292.726562 20.0625 129.035156 131.296875 224.089844 261.875 223.792969zm-192.253906-131.757813 113.648437-65.570312c12.984375 21.136718 27.203125 41.484375 42.578125 60.925781-21.3125 26.714844-37.175781 57.351563-46.707031 90.179687-44.378906-16.664062-82.597656-46.507812-109.519531-85.535156zm70.132812-311.871094c1.5-8.265624 6.242188-15.59375 13.175782-20.363281 3.816406-2.066406 8.113281-3.097656 12.453124-3 23.351563 0 60.269532 23.789063 98.976563 65.660157-16.5625 18.449218-35.949219 34.160156-57.421875 46.542968-16.878906 9.664063-34.890625 17.191406-53.617188 22.4375-16.324218-49.234375-19.683593-88.480468-13.566406-111.277344zm82.746094 115.804688c23.175781-13.398438 44.175781-30.242188 62.277344-49.960938 15.679687 19.402344 30.09375 39.785157 43.148437 61.027344l-133.441406 76.964844c-11.371094-20.488281-21.515625-41.621094-30.375-63.308594 20.390625-5.847656 40-14.148437 58.390625-24.722656zm176.167969 242.289062c-1.253907 5.035157-3.429688 9.785157-6.429688 14.011719-4.445312 3.007813-8.886719 6.058594-13.621093 8.816407-24.027344 4.664062-67.152344-22.441407-111.707032-72.941407 31.914063-32.460937 72.71875-54.742187 117.285156-64.042969 17.152344 50.628907 20.714844 90.929688 14.472657 114.15625zm-98.3125-115.023437c-19.496094 11.226563-37.4375 24.949219-53.386719 40.800781-13.226562-17.023437-25.507812-34.769531-36.777344-53.152344l133.363282-76.953124c10.9375 19.671874 20.757812 39.9375 29.414062 60.714843-25.507812 5.832031-49.988281 15.46875-72.613281 28.589844zm-91.164063 163.195313c7.777344-26.863282 20.398438-52.078126 37.246094-74.40625 23.824219 28.347656 52.726562 52 85.222656 69.746093-39.667968 12.453125-81.960937 14.066407-122.46875 4.660157zm223.273438-68.285157c-.164063-33.503906-5.953125-66.730469-17.113282-98.320312 23.367188-1.695313 46.859376.140625 69.675782 5.433593-10.113282 34.605469-28.097656 66.398438-52.5625 92.886719zm59.5-123.21875c-28.671875-6.625-58.242188-8.433593-87.503906-5.351562-9.765626-24.4375-21.074219-48.214844-33.859376-71.210938l101.8125-58.792969c19.949219 42.132813 26.757813 89.292969 19.550782 135.355469zm-34.636719-162.570312-102.488281 59.125c-15.058594-24.507813-31.816406-47.949219-50.121094-70.148438 17.539062-24.359375 30.808594-51.53125 39.226562-80.355469 46.617188 17.515626 86.367188 49.550782 113.382813 91.378907zm-196.289063-106.59375c17.871094.058593 35.683594 2.148437 53.09375 6.234375-6.691406 23.261718-16.972656 45.316406-30.484374 65.386718-23.242188-26.476562-51.496094-48.085937-83.128907-63.597656 19.734375-5.320312 40.085938-8.023437 60.519531-8.023437zm-153.75 58.082031c-3.25 38.726562 2.074219 77.699219 15.578126 114.144531-28.445313 4-57.375 2.652344-85.320313-3.964843 12.289063-42.613282 36.488281-80.839844 69.742187-110.179688zm-76.527343 140.757812c19.394531 4.492188 39.238281 6.773438 59.152343 6.785157 14.609376-.035157 29.195313-1.292969 43.597657-3.730469 9.820312 24.667969 21.203125 48.691406 34.082031 71.910156l-113.808594 65.691406c-22.230468-43.3125-30.28125-92.523437-23.015625-140.65625zm0 0"/></svg>