<svg height="512" viewBox="0 0 64 64" width="512" xmlns="http://www.w3.org/2000/svg"><g id="Books-2" data-name="Books"><path d="m19 20a7 7 0 1 0 -7-7 7.008 7.008 0 0 0 7 7zm0-12a5 5 0 1 1 -5 5 5.006 5.006 0 0 1 5-5z"/><path d="m39 20h12a1 1 0 0 0 1-1v-12a1 1 0 0 0 -1-1h-12a1 1 0 0 0 -1 1v12a1 1 0 0 0 1 1zm1-12h10v10h-10z"/><path d="m11 24h16v2h-16z"/><path d="m11 30h16v2h-16z"/><path d="m11 36h16v2h-16z"/><path d="m37 24h16v2h-16z"/><path d="m37 30h16v2h-16z"/><path d="m37 36h16v2h-16z"/><path d="m61 6h-2v-3a1 1 0 0 0 -1-1h-22a4.982 4.982 0 0 0 -4 2.031 4.982 4.982 0 0 0 -4-2.031h-22a1 1 0 0 0 -1 1v3h-2a1 1 0 0 0 -1 1v40a1 1 0 0 0 1 1h4v5 .022a4.983 4.983 0 0 0 3 8.978h46a1 1 0 0 0 1-1v-7.556a3.936 3.936 0 0 0 1.444-5.444h2.556a1 1 0 0 0 1-1v-40a1 1 0 0 0 -1-1zm-25-2h21v38h-24v-35a3 3 0 0 1 3-3zm-29 0h21a3 3 0 0 1 3 3v35h-24zm48 56h-45a3 3 0 0 1 0-6h45zm2-10a2 2 0 0 1 -2 2h-46v-4h46a2 2 0 0 1 2 2zm3-4h-56v-38h1v35a1 1 0 0 0 1 1h52a1 1 0 0 0 1-1v-35h1z"/><path d="m12 56h40v2h-40z"/></g></svg>