<svg height="511pt" viewBox="1 -51 511.99999 511" width="511pt" xmlns="http://www.w3.org/2000/svg"><path d="m505.011719 77.304688c-.28125-.308594-.519531-.648438-.855469-.945313-.332031-.300781-.441406-.351563-.65625-.546875-4.804688-4.5-11.132812-7.015625-17.714844-7.039062h-152.984375v-42.667969c-.316406-14.421875-12.242187-25.871094-26.667969-25.601563h-108.800781c-14.421875-.269531-26.347656 11.175782-26.664062 25.601563v42.667969h-144.453125c-6.59375.015624-12.9375 2.53125-17.75 7.039062-.214844.195312-.453125.347656-.65625.546875-.207032.195313-.539063.636719-.855469.945313-4.425781 4.582031-6.9179688 10.695312-6.953125 17.066406v289.519531c.015625 14.472656 11.742188 26.199219 26.214844 26.214844h459.570312c14.472656-.015625 26.199219-11.742188 26.214844-26.214844v-289.519531c-.042969-6.375-2.546875-12.488282-6.988281-17.066406zm-317.277344-51.199219c.375-4.96875 4.621094-8.742188 9.597656-8.535157h108.800781c4.976563-.207031 9.222657 3.566407 9.601563 8.535157v42.667969h-128zm297.402344 59.734375c2.527343-.003906 4.972656.90625 6.886719 2.558594 1.640624 1.84375 2.65625 4.160156 2.910156 6.613281v110.292969h-213.332032v-25.597657c0-4.714843-3.820312-8.535156-8.535156-8.535156h-34.132812c-4.714844 0-8.535156 3.820313-8.535156 8.535156v25.597657h-213.332032v-110.320313c.042969-1.996094.75-3.921875 2.015625-5.46875.265625-.40625.566407-.785156.894531-1.144531 1.914063-1.652344 4.355469-2.5625 6.886719-2.558594zm-220.601563 102.398437v51.199219h-17.066406v-51.199219zm221.25 204.800781h-459.570312c-5.050782-.003906-9.144532-4.097656-9.148438-9.148437v-161.519531h213.332032v25.601562c0 4.710938 3.820312 8.53125 8.535156 8.53125h34.132812c4.714844 0 8.535156-3.820312 8.535156-8.53125v-25.601562h213.332032v161.519531c-.003906 5.050781-4.097656 9.144531-9.148438 9.148437zm0 0"/></svg>