<svg height="511pt" viewBox="1 -42 511.99952 511" width="511pt" xmlns="http://www.w3.org/2000/svg"><path d="m503.464844.5h-494.933594c-4.710938 0-8.53125 3.820312-8.53125 8.53125v409.601562c0 4.710938 3.820312 8.53125 8.53125 8.53125h494.933594c4.714844 0 8.535156-3.820312 8.535156-8.53125v-409.601562c0-4.710938-3.820312-8.53125-8.535156-8.53125zm-8.53125 409.597656h-477.867188v-392.53125h477.867188zm0 0"/><path d="m34.132812 401.566406h443.734376c4.710937 0 8.53125-3.820312 8.53125-8.535156v-358.398438c0-4.710937-3.820313-8.53125-8.53125-8.53125h-443.734376c-4.710937 0-8.53125 3.820313-8.53125 8.53125v358.398438c0 4.714844 3.820313 8.535156 8.53125 8.535156zm309.648438-170.359375c-25.195312 1.621094-48.671875 13.355469-65.089844 32.539063-3.335937-.640625-6.609375-1.578125-9.78125-2.800782-6.355468-22.761718-19.808594-42.90625-38.398437-57.496093 1.835937-32.941407 30.027343-58.152344 62.964843-56.316407 31.082032 1.734376 55.621094 27.046876 56.390626 58.167969-.023438 8.984375-2.101563 17.847657-6.085938 25.90625zm-87.78125 59.425781v93.867188h-187.734375v-93.867188c0-51.839843 42.027344-93.867187 93.867187-93.867187 51.839844 0 93.867188 42.027344 93.867188 93.867187zm17.066406 93.867188v-59.734375c.050782-42.394531 34.40625-76.75 76.800782-76.800781h17.066406c42.394531.054687 76.75 34.40625 76.800781 76.800781v59.734375zm-230.398437-341.332031h426.664062v341.332031h-8.53125v-59.734375c-.0625-51.816406-42.050781-93.804687-93.867187-93.867187h-4.566406c14.21875-39.894532-6.597657-83.765626-46.492188-97.984376s-83.765625 6.597657-97.984375 46.492188c-1.554687 4.367188-2.710937 8.867188-3.457031 13.441406-53.964844-28.921875-121.164063-8.617187-150.085938 45.347656-8.640625 16.128907-13.160156 34.140626-13.148437 52.4375v93.867188h-8.53125zm0 0"/><path d="m281.601562 77.300781h17.066407v34.132813h-17.066407zm0 0"/><path d="m218.734375 98.722656 14.78125-8.53125 17.066406 29.558594-14.78125 8.53125zm0 0"/><path d="m175.011719 148.683594 8.53125-14.777344 29.5625 17.066406-8.535157 14.777344zm0 0"/><path d="m384 196.765625h34.132812v17.066406h-34.132812zm0 0"/><path d="m367.160156 150.992188 29.5625-17.0625 8.53125 14.78125-29.5625 17.0625zm0 0"/><path d="m329.679688 119.730469 17.0625-29.5625 14.78125 8.53125-17.0625 29.5625zm0 0"/></svg>